<?xml version="1.0" encoding="iso-8859-1"?>
<!-- Generator: Adobe Illustrator 19.0.0, SVG Export Plug-In . SVG Version: 6.00 Build 0)  -->
<svg version="1.1" id="Capa_1" xmlns="http://www.w3.org/2000/svg" xmlns:xlink="http://www.w3.org/1999/xlink" x="0px" y="0px"
	 viewBox="0 0 384 384" style="enable-background:new 0 0 384 384;" xml:space="preserve">
<circle style="fill:#EFC84A;" cx="192" cy="192" r="192"/>
<path style="opacity:0.1;enable-background:new    ;" d="M209.44,93.229L199.32,83.11l-0.4-0.4c-0.44-0.48-1.04-0.72-1.72-0.72
	h-10.4c-1.4,0-2.56,1.159-2.56,2.56v8.68H89.68V238.07H82v9.56l34.68,34.68l-7.04,19.68l82.001,82.001c0.12,0,0.238,0.01,0.359,0.01
	c106.039,0,192-85.962,192-192c0-3.129-0.088-6.235-0.236-9.327L294.32,93.229H209.44z"/>
<path style="fill:#64798A;" d="M205.569,110.49l-5.81,2.087V84.553c0-1.41-1.142-2.553-2.552-2.553h-10.414
	c-1.41,0-2.552,1.143-2.552,2.553v28.024l-5.81-2.087L109.628,302h16.49l58.122-161.781v139.699h15.519V140.219L257.882,302h16.49
	L205.569,110.49z"/>
<rect x="89.68" y="93.24" style="fill:#FFFFFF;" width="204.68" height="144.84"/>
<rect x="101.648" y="105.236" style="fill:#82D6F4;" width="180.68" height="120.84"/>
<polygon style="fill:#FCD462;" points="101.659,197.699 155.368,143.99 237.422,226.044 101.659,226.067 "/>
<polygon style="fill:#DC8744;" points="237.422,226.066 262.833,226.066 190.396,179.018 "/>
<polygon style="fill:#F6C358;" points="282.339,150.695 242.823,122.372 190.396,179.018 262.833,226.066 282.339,226.066 "/>
<circle style="fill:#FFFFFF;" cx="134.892" cy="129.88" r="11.628"/>
<rect x="82" y="238.08" style="fill:#DC8744;" width="220" height="9.548"/>
<g>
</g>
<g>
</g>
<g>
</g>
<g>
</g>
<g>
</g>
<g>
</g>
<g>
</g>
<g>
</g>
<g>
</g>
<g>
</g>
<g>
</g>
<g>
</g>
<g>
</g>
<g>
</g>
<g>
</g>
</svg>
