<?xml version="1.0" encoding="iso-8859-1"?>
<!-- Generator: Adobe Illustrator 19.0.0, SVG Export Plug-In . SVG Version: 6.00 Build 0)  -->
<svg version="1.1" id="Capa_1" xmlns="http://www.w3.org/2000/svg" xmlns:xlink="http://www.w3.org/1999/xlink" x="0px" y="0px"
	 viewBox="0 0 384 384" style="enable-background:new 0 0 384 384;" xml:space="preserve">
<circle style="fill:#EA8953;" cx="192" cy="192" r="192"/>
<path style="opacity:0.1;enable-background:new    ;" d="M384,192c0-8.267-0.582-16.394-1.596-24.386L300,85.19l-0.12-0.12
	c-1.56-1.88-3.96-3.08-6.6-3.08H90.72c-4.8,0-8.72,3.92-8.72,8.72v202.56c0,2.32,0.88,4.4,2.36,5.96l0.2,0.2l83.001,82.969
	C175.57,383.416,183.714,384,192,384C298.039,384,384,298.039,384,192z"/>
<path style="fill:#EBF0F3;" d="M293.281,82H90.719C85.902,82,82,85.904,82,90.719v202.563c0,4.815,3.902,8.718,8.719,8.718h202.562
	c4.814,0,8.719-3.903,8.719-8.718V90.719C302,85.904,298.096,82,293.281,82z"/>
<rect x="94" y="94" style="fill:#64798A;" width="196" height="157.64"/>
<ellipse style="fill:#3A556A;" cx="192" cy="204.2" rx="36.964" ry="5.04"/>
<path style="fill:#E56353;" d="M155.577,172.823c0,20.116,16.307,36.423,36.423,36.423v-72.847
	C171.884,136.399,155.577,152.707,155.577,172.823z"/>
<path style="fill:#D15241;" d="M192,136.399v72.847c20.116,0,36.425-16.307,36.425-36.423
	C228.425,152.707,212.116,136.399,192,136.399z"/>
<path style="fill:#CE412D;" d="M204.799,172.743l-22.857-18.713c-1.412-1.156-3.533-0.151-3.533,1.674v37.426
	c0,1.825,2.121,2.83,3.533,1.674l22.857-18.713C205.856,175.226,205.856,173.609,204.799,172.743z"/>
<path style="fill:#FFFFFF;" d="M204.799,169.554l-22.857-18.713c-1.412-1.156-3.533-0.151-3.533,1.674v37.427
	c0,1.825,2.121,2.83,3.533,1.674l22.857-18.713C205.856,172.036,205.856,170.419,204.799,169.554z"/>
<path style="fill:#E1E6E9;" d="M285.913,274.22H98.089c-2.258,0-4.088,1.83-4.088,4.088s1.83,4.088,4.088,4.088h187.824
	c2.258,0,4.088-1.83,4.088-4.088S288.171,274.22,285.913,274.22z"/>
<path style="fill:#D5D6DB;" d="M285.913,274.22H98.089c-2.258,0-4.088,1.83-4.088,4.088s1.83,4.088,4.088,4.088h187.824
	c2.258,0,4.088-1.83,4.088-4.088S288.171,274.22,285.913,274.22z"/>
<path style="fill:#E1E6E9;" d="M98.089,282.395H231.71c2.258,0,4.088-1.83,4.088-4.088s-1.83-4.088-4.088-4.088H98.089"/>
<path style="fill:#D15241;" d="M178.872,274.22H98.089c-2.258,0-4.088,1.83-4.088,4.088s1.83,4.088,4.088,4.088h80.783"/>
<circle style="fill:#E56353;" cx="184.48" cy="278.32" r="7.88"/>
<circle style="fill:#D15241;" cx="184.48" cy="278.32" r="3.652"/>
<g>
</g>
<g>
</g>
<g>
</g>
<g>
</g>
<g>
</g>
<g>
</g>
<g>
</g>
<g>
</g>
<g>
</g>
<g>
</g>
<g>
</g>
<g>
</g>
<g>
</g>
<g>
</g>
<g>
</g>
</svg>
